<svg xmlns="http://www.w3.org/2000/svg" version="1.1" xmlns:xlink="http://www.w3.org/1999/xlink" xmlns:svgjs="http://svgjs.dev/svgjs" width="1000" height="1000"><g clip-path="url(#SvgjsClipPath1143)"><rect width="1000" height="1000" fill="#ffffff"></rect><g transform="matrix(4.375,0,0,4.375,150,150)"><svg xmlns="http://www.w3.org/2000/svg" version="1.1" xmlns:xlink="http://www.w3.org/1999/xlink" xmlns:svgjs="http://svgjs.dev/svgjs" width="160" height="160"><svg width="160" height="160" viewBox="0 0 160 160" fill="none" xmlns="http://www.w3.org/2000/svg">
<path d="M40 92.4657C33.2397 91.0141 27.3076 86.9933 23.455 81.2518C19.6023 75.5102 18.1305 68.4966 19.3498 61.6906C20.5692 54.8846 24.3845 48.8183 29.9908 44.7714C35.5972 40.7245 42.5562 39.0134 49.4 39.999C51.0842 36.1766 53.457 32.6965 56.4 29.7324C59.4964 26.6282 63.1747 24.1653 67.2244 22.4849C71.2741 20.8044 75.6155 19.9395 80 19.9395C84.3845 19.9395 88.7259 20.8044 92.7756 22.4849C96.8252 24.1653 100.504 26.6282 103.6 29.7324C106.543 32.6965 108.916 36.1766 110.6 39.999C117.444 39.0134 124.403 40.7245 130.009 44.7714C135.616 48.8183 139.431 54.8846 140.65 61.6906C141.87 68.4966 140.398 75.5102 136.545 81.2518C132.692 86.9933 126.76 91.0141 120 92.4657V139.999H40V92.4657Z" stroke="#4AA267" stroke-width="12" stroke-linecap="round" stroke-linejoin="round"></path>
<path d="M40 113.333H120" stroke="#4AA267" stroke-width="12" stroke-linecap="round" stroke-linejoin="round"></path>
</svg></svg></g></g><defs><clipPath id="SvgjsClipPath1143"><rect width="1000" height="1000" x="0" y="0" rx="350" ry="350"></rect></clipPath></defs></svg>